<svg width="32" height="32" viewBox="0 0 32 32" xmlns="http://www.w3.org/2000/svg">
  <path d="M8 4c-1.5 0-3 1.5-3 4.5C5 12 8 16 8 16s-2 3-2 6c0 3 1.5 4.5 3 4.5 2 0 4-2 6-6 1-2 2-4 4-4 3 0 6-2 8-5 1-2 2-4 2-6 0-3-2-5.5-5-5.5-2 0-4 1-6 3-1 1-2 2-4 2-2 0-3.5-1.5-5-5z" fill="#FFD700"/>
  <path d="M10 6c-1 0-2 1-2 2.5 0 2 2 4.5 2 4.5s-1.5 2.5-1.5 4.5c0 2 1 3 2 3 1.5 0 3-1.5 4.5-4.5.8-1.5 1.5-3 3-3 2.5 0 4.5-1.5 6-3.5.8-1.5 1.5-3 1.5-4.5 0-2-1.5-4-3.5-4-1.5 0-3 .8-4.5 2.2-.8.8-1.5 1.5-3 1.5-1.5 0-2.5-1-3.5-3.2z" fill="#FFA500"/>
</svg>